<?xml version="1.0" encoding="utf-8"?>
<!-- Generator: Adobe Illustrator 15.0.2, SVG Export Plug-In . SVG Version: 6.00 Build 0)  -->
<!DOCTYPE svg PUBLIC "-//W3C//DTD SVG 1.1//EN" "http://www.w3.org/Graphics/SVG/1.1/DTD/svg11.dtd">
<svg version="1.1"
	 id="svg2" xmlns:dc="http://purl.org/dc/elements/1.1/" xmlns:cc="http://web.resource.org/cc/" xmlns:svg="http://www.w3.org/2000/svg" xmlns:rdf="http://www.w3.org/1999/02/22-rdf-syntax-ns#" xmlns:sodipodi="http://sodipodi.sourceforge.net/DTD/sodipodi-0.dtd" xmlns:inkscape="http://www.inkscape.org/namespaces/inkscape" inkscape:output_extension="org.inkscape.output.svg.inkscape" inkscape:export-ydpi="156.52174" inkscape:export-xdpi="156.52174" sodipodi:docname="kuba_crystal_earth_recycle.svg" sodipodi:docbase="C:\Documents and Settings\Patils\Desktop" sodipodi:version="0.32" inkscape:version="0.45.1"
	 xmlns="http://www.w3.org/2000/svg" xmlns:xlink="http://www.w3.org/1999/xlink" x="0px" y="0px" width="145.225px"
	 height="150.889px" viewBox="0 0 145.225 150.889" enable-background="new 0 0 145.225 150.889" xml:space="preserve">
<sodipodi:namedview  id="base" inkscape:window-width="871" inkscape:window-height="579" inkscape:cx="121.98777" inkscape:pageshadow="2" inkscape:pageopacity="0.0" guidetolerance="10.0" gridtolerance="10.0" objecttolerance="10.0" borderopacity="1.0" bordercolor="#666666" pagecolor="#ffffff" inkscape:zoom="1.8536222" inkscape:cy="82.442309" inkscape:window-x="91" inkscape:window-y="45" inkscape:current-layer="svg2">
	</sodipodi:namedview>
<g id="layer1" transform="matrix(0.171973,0,0,0.171973,185.2809,-8.7691846)">
</g>
<linearGradient id="path2333_1_" gradientUnits="userSpaceOnUse" x1="-30.3613" y1="864.3113" x2="0.5392" y2="884.6849" gradientTransform="matrix(-0.3349 0.9895 0.9067 0.3069 -741.6322 -238.9565)">
	<stop  offset="0" style="stop-color:#9EED40"/>
	<stop  offset="1" style="stop-color:#52AF34"/>
</linearGradient>
<path id="path2333" sodipodi:nodetypes="czccczz" fill="url(#path2333_1_)" stroke="#3D7311" stroke-width="2" d="M86.251,12.458
	c-7.16,0.518-9.449-4.669-17.203,5.206c-7.686,9.787-11.104,19.771-11.104,19.771l-27.88,4.165c0,0,2.259-12.104,6.689-17.589
	c5.105-8.565,14.338-16.836,25.642-20.362S93.283,11.95,86.251,12.458z"/>
<path id="path3519" sodipodi:ry="28.884468" sodipodi:rx="28.884468" sodipodi:cy="56.485737" sodipodi:cx="193.56345" sodipodi:type="arc" fill="#FFFFFF" d="
	M103.581,135.29c0.006-2.632-5.812-4.768-12.992-4.77c-7.182-0.002-13.008,2.13-13.014,4.762c0,0.003,0,0.005,0,0.008
	c-0.005,2.632,5.812,4.767,12.994,4.769s13.007-2.13,13.012-4.762C103.581,135.294,103.581,135.292,103.581,135.29z"/>
<linearGradient id="path2381_1_" gradientUnits="userSpaceOnUse" x1="-19.7578" y1="-69.4177" x2="1.4295" y2="-51.4391" gradientTransform="matrix(1.2013 0 0 -0.8324 44.0704 68.3073)">
	<stop  offset="0" style="stop-color:#9EED40"/>
	<stop  offset="1" style="stop-color:#52AF34"/>
</linearGradient>
<path id="path2381" sodipodi:nodetypes="czccczz" fill="url(#path2381_1_)" stroke="#3D7311" stroke-width="2" d="M13.353,98.339
	c4.028,5.942,0.681,10.518,13.11,12.295c12.319,1.763,22.673-0.269,22.673-0.269l17.547,22.062c0,0-11.61,4.095-18.576,3.001
	c-9.971-0.139-21.75-4-30.456-12.025C8.944,115.377,9.396,92.502,13.353,98.339z"/>
<linearGradient id="path2365_1_" gradientUnits="userSpaceOnUse" x1="-773.1206" y1="460.905" x2="-750.1751" y2="477.8848" gradientTransform="matrix(-0.6895 -0.7848 -0.7192 0.6318 -56.8632 -805.4816)">
	<stop  offset="0" style="stop-color:#9EED40"/>
	<stop  offset="1" style="stop-color:#52AF34"/>
</linearGradient>
<path id="path2365" sodipodi:nodetypes="czccczz" fill="url(#path2365_1_)" stroke="#3D7311" stroke-width="2" d="M123.419,118.052
	c3.133-6.459,8.768-5.848,4.094-17.501c-4.633-11.549-11.569-19.501-11.569-19.501l10.333-26.228c0,0,9.352,8.008,11.887,14.587
	c4.865,8.704,7.412,20.837,4.814,32.389C140.379,113.351,120.343,124.397,123.419,118.052z"/>
<linearGradient id="path2335_1_" gradientUnits="userSpaceOnUse" x1="80.957" y1="-6.6643" x2="113.0817" y2="57.1645">
	<stop  offset="0" style="stop-color:#52AF34"/>
	<stop  offset="1" style="stop-color:#9EED40"/>
</linearGradient>
<path id="path2335" sodipodi:nodetypes="cccccczc" fill="url(#path2335_1_)" stroke="#3D7311" stroke-width="2" d="M54.559,6.855
	c19.186,2.465,33.934,20.7,36.872,28.312c-5.521,3.278-11.367,5.343-11.367,5.343l34.283,16.018l14.691-33.629l-10.255,3.146
	c-9.29-14.738-23.021-21.009-32.906-24.066C75.991-1.081,58.181,3.738,54.559,6.855z"/>
<linearGradient id="path2367_1_" gradientUnits="userSpaceOnUse" x1="38.4883" y1="-60.3557" x2="92.2522" y2="-15.4025" gradientTransform="matrix(1.153 0 0 -0.8673 32.8205 84.7654)">
	<stop  offset="0" style="stop-color:#52AF34"/>
	<stop  offset="1" style="stop-color:#9EED40"/>
</linearGradient>
<path id="path2367" sodipodi:nodetypes="cccccczc" fill="url(#path2367_1_)" stroke="#3D7311" stroke-width="2" d="M144.118,93.408
	c-11.729,15.384-34.895,19.038-42.955,17.776c-0.078-6.42,1.057-12.516,1.057-12.516L71.207,120.35l21.776,29.538l2.404-10.455
	c17.408-0.676,29.705-9.431,37.296-16.464C140.274,115.937,145.007,98.103,144.118,93.408z"/>
<linearGradient id="path2383_1_" gradientUnits="userSpaceOnUse" x1="-2.0689" y1="32.5461" x2="-26.7273" y2="-33.5048" gradientTransform="matrix(1.153 0 0 -0.8673 32.8205 84.7654)">
	<stop  offset="0" style="stop-color:#52AF34"/>
	<stop  offset="1" style="stop-color:#9EED40"/>
</linearGradient>
<path id="path2383" sodipodi:nodetypes="cccccczc" fill="url(#path2383_1_)" stroke="#3D7311" stroke-width="2" d="M24.346,128.586
	c-7.458-17.849,0.959-39.737,6.083-46.088c5.599,3.143,10.311,7.173,10.311,7.173l-3.271-37.698L1,56.063l7.852,7.309
	c-8.119,15.414-6.685,30.44-4.39,40.531S19.835,127.008,24.346,128.586z"/>
</svg>
