<?xml version="1.0" encoding="UTF-8" standalone="no"?>
<!DOCTYPE svg PUBLIC "-//W3C//DTD SVG 1.0//EN" "http://www.w3.org/TR/2001/PR-SVG-20010719/DTD/svg10.dtd">
<svg width="36cm" height="46cm" viewBox="254 149 704 913" xmlns="http://www.w3.org/2000/svg" xmlns:xlink="http://www.w3.org/1999/xlink">
  <g>
    <rect style="fill: #ffffff" x="257" y="683.25" width="698" height="377"/>
    <rect style="fill: none; fill-opacity:0; stroke-width: 2; stroke: #000000" x="257" y="683.25" width="698" height="377"/>
  </g>
  <g>
    <rect style="fill: #ffffff" x="255" y="200" width="701" height="359"/>
    <rect style="fill: none; fill-opacity:0; stroke-width: 2; stroke: #000000" x="255" y="200" width="701" height="359"/>
  </g>
  <g>
    <rect style="fill: #ffffff" x="441" y="284" width="71.85" height="36"/>
    <rect style="fill: none; fill-opacity:0; stroke-width: 2; stroke: #000000" x="441" y="284" width="71.85" height="36"/>
    <rect style="fill: #ffffff" x="433" y="292" width="71.85" height="36"/>
    <rect style="fill: none; fill-opacity:0; stroke-width: 2; stroke: #000000" x="433" y="292" width="71.85" height="36"/>
    <text style="fill: #000000;text-anchor:middle;font-size:12.8;font-family:sanserif;font-style:normal;font-weight:normal" x="468.925" y="313.9">
      <tspan x="468.925" y="313.9">Browser</tspan>
    </text>
    <line style="fill: none; fill-opacity:0; stroke-width: 1; stroke: #000000" x1="447" y1="316.9" x2="498.85" y2="316.9"/>
  </g>
  <g>
    <line style="fill: none; fill-opacity:0; stroke-width: 1; stroke-dasharray: 8; stroke: #000000" x1="472.924" y1="328" x2="472.924" y2="352"/>
    <line style="fill: none; fill-opacity:0; stroke-width: 1; stroke-dasharray: 8; stroke: #000000" x1="472.924" y1="472" x2="472.924" y2="526"/>
    <rect style="fill: #ffffff" x="465.924" y="352" width="14" height="120"/>
    <rect style="fill: none; fill-opacity:0; stroke-width: 2; stroke: #000000" x="465.924" y="352" width="14" height="120"/>
  </g>
  <g>
    <rect style="fill: #ffffff" x="771" y="292" width="62.05" height="36"/>
    <rect style="fill: none; fill-opacity:0; stroke-width: 2; stroke: #000000" x="771" y="292" width="62.05" height="36"/>
    <text style="fill: #000000;text-anchor:middle;font-size:12.8;font-family:sanserif;font-style:normal;font-weight:normal" x="802.025" y="313.9">
      <tspan x="802.025" y="313.9">Server</tspan>
    </text>
    <line style="fill: none; fill-opacity:0; stroke-width: 1; stroke: #000000" x1="781" y1="316.9" x2="823.05" y2="316.9"/>
  </g>
  <g>
    <line style="fill: none; fill-opacity:0; stroke-width: 1; stroke-dasharray: 8; stroke: #000000" x1="802.026" y1="328" x2="802.026" y2="352"/>
    <line style="fill: none; fill-opacity:0; stroke-width: 1; stroke-dasharray: 8; stroke: #000000" x1="802.026" y1="472" x2="802.026" y2="530.2"/>
    <rect style="fill: #ffffff" x="795.026" y="352" width="14" height="120"/>
    <rect style="fill: none; fill-opacity:0; stroke-width: 2; stroke: #000000" x="795.026" y="352" width="14" height="120"/>
  </g>
  <g>
    <line style="fill: none; fill-opacity:0; stroke-width: 2; stroke: #000000" x1="778.026" y1="372" x2="479.924" y2="372"/>
    <polygon style="fill: #000000" points="778.026,377 794.026,372 778.026,367 "/>
    <polygon style="fill: none; fill-opacity:0; stroke-width: 2; stroke: #000000" points="778.026,377 794.026,372 778.026,367 "/>
    <text style="fill: #000000;text-anchor:middle;font-size:12.7998;font-family:sanserif;font-style:normal;font-weight:normal" x="637" y="386">New WebSocket connection</text>
  </g>
  <g>
    <line style="fill: none; fill-opacity:0; stroke-width: 2; stroke: #000000" x1="496.924" y1="432" x2="795.026" y2="432"/>
    <polygon style="fill: #000000" points="496.924,427 480.924,432 496.924,437 "/>
    <polygon style="fill: none; fill-opacity:0; stroke-width: 2; stroke: #000000" points="496.924,427 480.924,432 496.924,437 "/>
    <text style="fill: #000000;text-anchor:middle;font-size:12.7998;font-family:sanserif;font-style:normal;font-weight:normal" x="639" y="447">Begin stream of audio buffers</text>
  </g>
  <g>
    <rect style="fill: #ffffff" x="301" y="293" width="47.15" height="36"/>
    <rect style="fill: none; fill-opacity:0; stroke-width: 2; stroke: #000000" x="301" y="293" width="47.15" height="36"/>
    <text style="fill: #000000;text-anchor:middle;font-size:12.8;font-family:sanserif;font-style:normal;font-weight:normal" x="324.575" y="314.9">
      <tspan x="324.575" y="314.9">DAC</tspan>
    </text>
    <line style="fill: none; fill-opacity:0; stroke-width: 1; stroke: #000000" x1="311" y1="317.9" x2="338.15" y2="317.9"/>
  </g>
  <g>
    <line style="fill: none; fill-opacity:0; stroke-width: 1; stroke-dasharray: 8; stroke: #000000" x1="324.576" y1="329" x2="324.576" y2="353"/>
    <line style="fill: none; fill-opacity:0; stroke-width: 1; stroke-dasharray: 8; stroke: #000000" x1="324.576" y1="473" x2="324.576" y2="529.2"/>
    <rect style="fill: #ffffff" x="317.576" y="353" width="14" height="120"/>
    <rect style="fill: none; fill-opacity:0; stroke-width: 2; stroke: #000000" x="317.576" y="353" width="14" height="120"/>
  </g>
  <g>
    <line style="fill: none; fill-opacity:0; stroke-width: 2; stroke: #000000" x1="348.576" y1="452.873" x2="465.924" y2="452"/>
    <polygon style="fill: #000000" points="348.538,447.874 332.576,452.993 348.613,457.873 "/>
    <polygon style="fill: none; fill-opacity:0; stroke-width: 2; stroke: #000000" points="348.538,447.874 332.576,452.993 348.613,457.873 "/>
    <text style="fill: #000000;text-anchor:middle;font-size:12.7998;font-family:sanserif;font-style:normal;font-weight:normal" x="398" y="467">Render audio</text>
  </g>
  <g>
    <polygon style="fill: #ffffff" points="500,150 706.2,150 718.2,162 718.2,248 500,248 "/>
    <polygon style="fill: none; fill-opacity:0; stroke-width: 2; stroke: #000000" points="500,150 706.2,150 718.2,162 718.2,248 500,248 "/>
    <polyline style="fill: none; fill-opacity:0; stroke-width: 1; stroke: #000000" points="706.2,150 706.2,162 718.2,162 "/>
    <text style="fill: #000000;text-anchor:start;font-size:12.8;font-family:monospace;font-style:normal;font-weight:normal" x="507" y="174.9">
      <tspan x="507" y="174.9">Architecture 1:</tspan>
      <tspan x="507" y="190.9"></tspan>
      <tspan x="507" y="206.9">Server sends audio back to</tspan>
      <tspan x="507" y="222.9">all connected browsers via</tspan>
      <tspan x="507" y="238.9">WebSockets.</tspan>
    </text>
  </g>
  <g>
    <rect style="fill: #ffffff" x="301.5" y="771.7" width="71.85" height="36"/>
    <rect style="fill: none; fill-opacity:0; stroke-width: 2; stroke: #000000" x="301.5" y="771.7" width="71.85" height="36"/>
    <rect style="fill: #ffffff" x="293.5" y="779.7" width="71.85" height="36"/>
    <rect style="fill: none; fill-opacity:0; stroke-width: 2; stroke: #000000" x="293.5" y="779.7" width="71.85" height="36"/>
    <text style="fill: #000000;text-anchor:middle;font-size:12.8;font-family:sanserif;font-style:normal;font-weight:normal" x="329.425" y="801.6">
      <tspan x="329.425" y="801.6">Browser</tspan>
    </text>
    <line style="fill: none; fill-opacity:0; stroke-width: 1; stroke: #000000" x1="307.5" y1="804.6" x2="359.35" y2="804.6"/>
  </g>
  <g>
    <line style="fill: none; fill-opacity:0; stroke-width: 1; stroke-dasharray: 8; stroke: #000000" x1="333.426" y1="815.7" x2="333.426" y2="839.7"/>
    <line style="fill: none; fill-opacity:0; stroke-width: 1; stroke-dasharray: 8; stroke: #000000" x1="333.426" y1="959.7" x2="333.426" y2="1013.7"/>
    <rect style="fill: #ffffff" x="326.426" y="839.7" width="14" height="120"/>
    <rect style="fill: none; fill-opacity:0; stroke-width: 2; stroke: #000000" x="326.426" y="839.7" width="14" height="120"/>
  </g>
  <g>
    <rect style="fill: #ffffff" x="554.5" y="776.7" width="62.05" height="36"/>
    <rect style="fill: none; fill-opacity:0; stroke-width: 2; stroke: #000000" x="554.5" y="776.7" width="62.05" height="36"/>
    <text style="fill: #000000;text-anchor:middle;font-size:12.8;font-family:sanserif;font-style:normal;font-weight:normal" x="585.525" y="798.6">
      <tspan x="585.525" y="798.6">Server</tspan>
    </text>
    <line style="fill: none; fill-opacity:0; stroke-width: 1; stroke: #000000" x1="564.5" y1="801.6" x2="606.55" y2="801.6"/>
  </g>
  <g>
    <line style="fill: none; fill-opacity:0; stroke-width: 1; stroke-dasharray: 8; stroke: #000000" x1="585.526" y1="812.7" x2="585.526" y2="836.7"/>
    <line style="fill: none; fill-opacity:0; stroke-width: 1; stroke-dasharray: 8; stroke: #000000" x1="585.526" y1="956.7" x2="585.526" y2="1014.9"/>
    <rect style="fill: #ffffff" x="578.526" y="836.7" width="14" height="120"/>
    <rect style="fill: none; fill-opacity:0; stroke-width: 2; stroke: #000000" x="578.526" y="836.7" width="14" height="120"/>
  </g>
  <g>
    <line style="fill: none; fill-opacity:0; stroke-width: 2; stroke: #000000" x1="561.527" y1="896.914" x2="340.426" y2="899.7"/>
    <polygon style="fill: #000000" points="561.59,901.914 577.526,896.713 561.464,891.915 "/>
    <polygon style="fill: none; fill-opacity:0; stroke-width: 2; stroke: #000000" points="561.59,901.914 577.526,896.713 561.464,891.915 "/>
    <text style="fill: #000000;text-anchor:middle;font-size:12.7998;font-family:sanserif;font-style:normal;font-weight:normal" x="462.5" y="915">New WebSocket connection</text>
  </g>
  <g>
    <line style="fill: none; fill-opacity:0; stroke-width: 2; stroke: #000000" x1="867.076" y1="854.817" x2="592.526" y2="856.7"/>
    <polygon style="fill: #000000" points="867.111,859.816 883.076,854.707 867.042,849.817 "/>
    <polygon style="fill: none; fill-opacity:0; stroke-width: 2; stroke: #000000" points="867.111,859.816 883.076,854.707 867.042,849.817 "/>
    <text style="fill: #000000;text-anchor:middle;font-size:12.7998;font-family:sanserif;font-style:normal;font-weight:normal" x="735" y="872">Begin rendering stream of audio buffers</text>
  </g>
  <g>
    <rect style="fill: #ffffff" x="867.5" y="774.7" width="47.15" height="36"/>
    <rect style="fill: none; fill-opacity:0; stroke-width: 2; stroke: #000000" x="867.5" y="774.7" width="47.15" height="36"/>
    <text style="fill: #000000;text-anchor:middle;font-size:12.8;font-family:sanserif;font-style:normal;font-weight:normal" x="891.075" y="796.6">
      <tspan x="891.075" y="796.6">DAC</tspan>
    </text>
    <line style="fill: none; fill-opacity:0; stroke-width: 1; stroke: #000000" x1="877.5" y1="799.6" x2="904.65" y2="799.6"/>
  </g>
  <g>
    <line style="fill: none; fill-opacity:0; stroke-width: 1; stroke-dasharray: 8; stroke: #000000" x1="891.076" y1="810.7" x2="891.076" y2="834.7"/>
    <line style="fill: none; fill-opacity:0; stroke-width: 1; stroke-dasharray: 8; stroke: #000000" x1="891.076" y1="954.7" x2="891.076" y2="1010.9"/>
    <rect style="fill: #ffffff" x="884.076" y="834.7" width="14" height="120"/>
    <rect style="fill: none; fill-opacity:0; stroke-width: 2; stroke: #000000" x="884.076" y="834.7" width="14" height="120"/>
  </g>
  <g>
    <polygon style="fill: #ffffff" points="514.5,637.7 697.6,637.7 709.6,649.7 709.6,719.7 514.5,719.7 "/>
    <polygon style="fill: none; fill-opacity:0; stroke-width: 2; stroke: #000000" points="514.5,637.7 697.6,637.7 709.6,649.7 709.6,719.7 514.5,719.7 "/>
    <polyline style="fill: none; fill-opacity:0; stroke-width: 1; stroke: #000000" points="697.6,637.7 697.6,649.7 709.6,649.7 "/>
    <text style="fill: #000000;text-anchor:start;font-size:12.8;font-family:monospace;font-style:normal;font-weight:normal" x="521.5" y="662.6">
      <tspan x="521.5" y="662.6">Architecture 2:</tspan>
      <tspan x="521.5" y="678.6"></tspan>
      <tspan x="521.5" y="694.6">Server uses own DAC to </tspan>
      <tspan x="521.5" y="710.6">render stream of audio.</tspan>
    </text>
  </g>
</svg>
