<?xml version="1.0" encoding="UTF-8" standalone="no"?>
<!DOCTYPE svg PUBLIC "-//W3C//DTD SVG 1.0//EN" "http://www.w3.org/TR/2001/PR-SVG-20010719/DTD/svg10.dtd">
<svg width="39cm" height="21cm" viewBox="118 93 780 420" xmlns="http://www.w3.org/2000/svg" xmlns:xlink="http://www.w3.org/1999/xlink">
  <g>
    <rect style="fill: #ffffff" x="350" y="145" width="71.85" height="36"/>
    <rect style="fill: none; fill-opacity:0; stroke-width: 2; stroke: #000000" x="350" y="145" width="71.85" height="36"/>
    <rect style="fill: #ffffff" x="342" y="153" width="71.85" height="36"/>
    <rect style="fill: none; fill-opacity:0; stroke-width: 2; stroke: #000000" x="342" y="153" width="71.85" height="36"/>
    <text style="fill: #000000;text-anchor:middle;font-size:12.8;font-family:sanserif;font-style:normal;font-weight:normal" x="377.925" y="174.9">
      <tspan x="377.925" y="174.9">Browser</tspan>
    </text>
    <line style="fill: none; fill-opacity:0; stroke-width: 1; stroke: #000000" x1="356" y1="177.9" x2="407.85" y2="177.9"/>
  </g>
  <g>
    <line style="fill: none; fill-opacity:0; stroke-width: 1; stroke-dasharray: 8; stroke: #000000" x1="381.926" y1="189" x2="381.926" y2="226"/>
    <line style="fill: none; fill-opacity:0; stroke-width: 1; stroke-dasharray: 8; stroke: #000000" x1="381.926" y1="306" x2="381.926" y2="439"/>
    <rect style="fill: #ffffff" x="374.926" y="226" width="14" height="80"/>
    <rect style="fill: none; fill-opacity:0; stroke-width: 2; stroke: #000000" x="374.926" y="226" width="14" height="80"/>
  </g>
  <g>
    <ellipse style="fill: #ffffff" cx="144" cy="112" rx="6" ry="6"/>
    <ellipse style="fill: none; fill-opacity:0; stroke-width: 2; stroke: #000000" cx="144" cy="112" rx="6" ry="6"/>
    <line style="fill: none; fill-opacity:0; stroke-width: 2; stroke: #000000" x1="120" y1="124" x2="168" y2="124"/>
    <line style="fill: none; fill-opacity:0; stroke-width: 2; stroke: #000000" x1="144" y1="118" x2="144" y2="148"/>
    <line style="fill: none; fill-opacity:0; stroke-width: 2; stroke: #000000" x1="144" y1="148" x2="120" y2="174"/>
    <line style="fill: none; fill-opacity:0; stroke-width: 2; stroke: #000000" x1="144" y1="148" x2="168" y2="174"/>
    <text style="fill: #000000;text-anchor:middle;font-size:12.8;font-family:sanserif;font-style:normal;font-weight:normal" x="144" y="197.9">
      <tspan x="144" y="197.9">User</tspan>
    </text>
  </g>
  <g>
    <line style="fill: none; fill-opacity:0; stroke-width: 1; stroke-dasharray: 8; stroke: #000000" x1="144" y1="202" x2="144" y2="227"/>
    <line style="fill: none; fill-opacity:0; stroke-width: 1; stroke-dasharray: 8; stroke: #000000" x1="144" y1="307" x2="144" y2="512"/>
    <rect style="fill: #ffffff" x="137" y="227" width="14" height="80"/>
    <rect style="fill: none; fill-opacity:0; stroke-width: 2; stroke: #000000" x="137" y="227" width="14" height="80"/>
  </g>
  <g>
    <line style="fill: none; fill-opacity:0; stroke-width: 2; stroke: #000000" x1="357.924" y1="226.076" x2="151" y2="227"/>
    <polygon style="fill: #000000" points="357.946,231.076 373.924,226.004 357.902,221.076 "/>
    <polygon style="fill: none; fill-opacity:0; stroke-width: 2; stroke: #000000" points="357.946,231.076 373.924,226.004 357.902,221.076 "/>
    <text style="fill: #000000;text-anchor:middle;font-size:12.7998;font-family:sanserif;font-style:normal;font-weight:normal" x="264" y="220">Turn on glitch</text>
  </g>
  <g>
    <rect style="fill: #ffffff" x="834" y="153" width="62.05" height="36"/>
    <rect style="fill: none; fill-opacity:0; stroke-width: 2; stroke: #000000" x="834" y="153" width="62.05" height="36"/>
    <text style="fill: #000000;text-anchor:middle;font-size:12.8;font-family:sanserif;font-style:normal;font-weight:normal" x="865.025" y="174.9">
      <tspan x="865.025" y="174.9">Server</tspan>
    </text>
    <line style="fill: none; fill-opacity:0; stroke-width: 1; stroke: #000000" x1="844" y1="177.9" x2="886.05" y2="177.9"/>
  </g>
  <g>
    <line style="fill: none; fill-opacity:0; stroke-width: 1; stroke-dasharray: 8; stroke: #000000" x1="865.024" y1="189" x2="865.024" y2="226"/>
    <line style="fill: none; fill-opacity:0; stroke-width: 1; stroke-dasharray: 8; stroke: #000000" x1="865.024" y1="306" x2="865.024" y2="455.7"/>
    <rect style="fill: #ffffff" x="858.024" y="226" width="14" height="80"/>
    <rect style="fill: none; fill-opacity:0; stroke-width: 2; stroke: #000000" x="858.024" y="226" width="14" height="80"/>
  </g>
  <g>
    <rect style="fill: #ffffff" x="535.5" y="133.2" width="133.35" height="57"/>
    <rect style="fill: none; fill-opacity:0; stroke-width: 2; stroke: #000000" x="535.5" y="133.2" width="133.35" height="57"/>
    <text style="fill: #000000;text-anchor:middle;font-size:12.8;font-family:sanserif;font-style:normal;font-weight:normal" x="602.175" y="176.1">
      <tspan x="602.175" y="176.1">Glitch</tspan>
    </text>
    <text style="fill: #000000;text-anchor:middle;font-size:12.8;font-family:sanserif;font-style:normal;font-weight:normal" x="602.175" y="159.2">&lt;&lt;Instrument&gt;&gt;</text>
    <line style="fill: none; fill-opacity:0; stroke-width: 1; stroke: #000000" x1="583.6" y1="179.1" x2="620.75" y2="179.1"/>
  </g>
  <g>
    <line style="fill: none; fill-opacity:0; stroke-width: 1; stroke-dasharray: 8; stroke: #000000" x1="602.174" y1="190.2" x2="602.174" y2="227.2"/>
    <line style="fill: none; fill-opacity:0; stroke-width: 1; stroke-dasharray: 8; stroke: #000000" x1="602.174" y1="307.2" x2="602.174" y2="456.9"/>
    <rect style="fill: #ffffff" x="595.174" y="227.2" width="14" height="80"/>
    <rect style="fill: none; fill-opacity:0; stroke-width: 2; stroke: #000000" x="595.174" y="227.2" width="14" height="80"/>
  </g>
  <g>
    <line style="fill: none; fill-opacity:0; stroke-width: 2; stroke: #000000" x1="578.174" y1="247.101" x2="388.926" y2="246"/>
    <polygon style="fill: #000000" points="578.145,252.101 594.174,247.194 578.203,242.101 "/>
    <polygon style="fill: none; fill-opacity:0; stroke-width: 2; stroke: #000000" points="578.145,252.101 594.174,247.194 578.203,242.101 "/>
    <text style="fill: #000000;text-anchor:middle;font-size:12.7998;font-family:sanserif;font-style:normal;font-weight:normal" x="492.05" y="256.6">&lt;&lt;create&gt;&gt;</text>
  </g>
  <g>
    <line style="fill: none; fill-opacity:0; stroke-width: 2; stroke: #000000" x1="841.024" y1="266.082" x2="609.174" y2="267.2"/>
    <polygon style="fill: #000000" points="841.048,271.082 857.024,266.005 841,261.082 "/>
    <polygon style="fill: none; fill-opacity:0; stroke-width: 2; stroke: #000000" points="841.048,271.082 857.024,266.005 841,261.082 "/>
    <text style="fill: #000000;text-anchor:middle;font-size:12.7998;font-family:sanserif;font-style:normal;font-weight:normal" x="733.6" y="276.6">save</text>
  </g>
</svg>
