<?xml version="1.0" encoding="UTF-8" standalone="no"?>
<!DOCTYPE svg PUBLIC "-//W3C//DTD SVG 1.0//EN" "http://www.w3.org/TR/2001/PR-SVG-20010719/DTD/svg10.dtd">
<svg width="34cm" height="20cm" viewBox="428 155 669 398" xmlns="http://www.w3.org/2000/svg" xmlns:xlink="http://www.w3.org/1999/xlink">
  <g>
    <rect style="fill: #ffffff" x="437" y="269" width="71.85" height="36"/>
    <rect style="fill: none; fill-opacity:0; stroke-width: 2; stroke: #000000" x="437" y="269" width="71.85" height="36"/>
    <rect style="fill: #ffffff" x="429" y="277" width="71.85" height="36"/>
    <rect style="fill: none; fill-opacity:0; stroke-width: 2; stroke: #000000" x="429" y="277" width="71.85" height="36"/>
    <text style="fill: #000000;text-anchor:middle;font-size:12.8;font-family:sanserif;font-style:normal;font-weight:normal" x="464.925" y="298.9">
      <tspan x="464.925" y="298.9">Browser</tspan>
    </text>
    <line style="fill: none; fill-opacity:0; stroke-width: 1; stroke: #000000" x1="443" y1="301.9" x2="494.85" y2="301.9"/>
  </g>
  <g>
    <rect style="fill: #ffffff" x="797" y="384" width="62.05" height="36"/>
    <rect style="fill: none; fill-opacity:0; stroke-width: 2; stroke: #000000" x="797" y="384" width="62.05" height="36"/>
    <text style="fill: #000000;text-anchor:middle;font-size:12.8;font-family:sanserif;font-style:normal;font-weight:normal" x="828.025" y="405.9">
      <tspan x="828.025" y="405.9">Server</tspan>
    </text>
    <line style="fill: none; fill-opacity:0; stroke-width: 1; stroke: #000000" x1="807" y1="408.9" x2="849.05" y2="408.9"/>
  </g>
  <g>
    <polyline style="fill: none; fill-opacity:0; stroke-width: 2; stroke: #000000" points="513.322,291 585,291 585,402 791.632,402 "/>
    <polyline style="fill: none; fill-opacity:0; stroke-width: 2; stroke: #000000" points="527.086,283 511.086,291 527.086,299 "/>
    <polyline style="fill: none; fill-opacity:0; stroke-width: 2; stroke: #000000" points="777.868,410 793.868,402 777.868,394 "/>
    <text style="fill: #000000;text-anchor:start;font-size:12.7998;font-family:monospace;font-style:normal;font-weight:normal" x="587" y="343.5">WebSocket connection</text>
    <text style="fill: #000000;text-anchor:start;font-size:12.7998;font-family:monospace;font-style:normal;font-weight:normal" x="528.85" y="288"></text>
    <text style="fill: #000000;text-anchor:end;font-size:12.7998;font-family:monospace;font-style:normal;font-weight:normal" x="776.104" y="399"></text>
  </g>
  <g>
    <polyline style="fill: none; fill-opacity:0; stroke-width: 2; stroke: #000000" points="468.926,313 468.926,420 554.226,420 554.226,465.828 "/>
    <polygon style="fill: #ffffff" points="554.226,479 546.226,471 554.226,463 562.226,471 "/>
    <polygon style="fill: none; fill-opacity:0; stroke-width: 2; stroke: #000000" points="554.226,479 546.226,471 554.226,463 562.226,471 "/>
    <text style="fill: #000000;text-anchor:middle;font-size:12.8;font-family:monospace;font-style:normal;font-weight:normal" x="515" y="412">
      <tspan x="515" y="412">Creates</tspan>
    </text>
  </g>
  <g>
    <rect style="fill: #ffffff" x="491" y="479" width="126.45" height="36" rx="20" ry="20"/>
    <rect style="fill: none; fill-opacity:0; stroke-width: 2; stroke: #000000" x="491" y="479" width="126.45" height="36" rx="20" ry="20"/>
    <text style="fill: #000000;text-anchor:middle;font-size:12.8;font-family:sanserif;font-style:normal;font-weight:normal" x="554.225" y="500.9">
      <tspan x="554.225" y="500.9">Control Message</tspan>
    </text>
  </g>
  <g>
    <polyline style="fill: none; fill-opacity:0; stroke-width: 2; stroke: #000000" points="554.224,515 554.224,535 828.026,535 828.026,436 "/>
    <polyline style="fill: none; fill-opacity:0; stroke-width: 2; stroke: #000000" points="836.026,428 828.026,436 820.026,428 "/>
    <text style="fill: #000000;text-anchor:middle;font-size:12.8;font-family:monospace;font-style:normal;font-weight:normal" x="693" y="550">
      <tspan x="693" y="550">Sent to server</tspan>
    </text>
  </g>
  <g>
    <rect style="fill: #ffffff" x="980" y="384" width="115.15" height="36" rx="20" ry="20"/>
    <rect style="fill: none; fill-opacity:0; stroke-width: 2; stroke: #000000" x="980" y="384" width="115.15" height="36" rx="20" ry="20"/>
    <text style="fill: #000000;text-anchor:middle;font-size:12.8;font-family:sanserif;font-style:normal;font-weight:normal" x="1037.57" y="405.9">
      <tspan x="1037.57" y="405.9">Audio Samples</tspan>
    </text>
  </g>
  <g>
    <polyline style="fill: none; fill-opacity:0; stroke-width: 2; stroke: #000000" points="859.05,402 859.05,402 966.828,402 "/>
    <polygon style="fill: #ffffff" points="980,402 972,410 964,402 972,394 "/>
    <polygon style="fill: none; fill-opacity:0; stroke-width: 2; stroke: #000000" points="980,402 972,410 964,402 972,394 "/>
    <text style="fill: #000000;text-anchor:middle;font-size:12.8;font-family:monospace;font-style:normal;font-weight:normal" x="917" y="399">
      <tspan x="917" y="399">Generates</tspan>
    </text>
  </g>
  <g>
    <polyline style="fill: none; fill-opacity:0; stroke-width: 2; stroke: #000000" points="828.025,384 828.025,307.05 827.85,307.05 827.85,243.272 "/>
    <polygon style="fill: #ffffff" points="827.85,230.1 835.85,238.1 827.85,246.1 819.85,238.1 "/>
    <polygon style="fill: none; fill-opacity:0; stroke-width: 2; stroke: #000000" points="827.85,230.1 835.85,238.1 827.85,246.1 819.85,238.1 "/>
    <text style="fill: #000000;text-anchor:middle;font-size:12.8;font-family:monospace;font-style:normal;font-weight:normal" x="861" y="309">
      <tspan x="861" y="309">Creates</tspan>
    </text>
  </g>
  <g>
    <rect style="fill: #ffffff" x="736.5" y="194.1" width="182.7" height="36" rx="20" ry="20"/>
    <rect style="fill: none; fill-opacity:0; stroke-width: 2; stroke: #000000" x="736.5" y="194.1" width="182.7" height="36" rx="20" ry="20"/>
    <text style="fill: #000000;text-anchor:middle;font-size:12.8;font-family:sanserif;font-style:normal;font-weight:normal" x="827.85" y="216">
      <tspan x="827.85" y="216">Synchronization Message</tspan>
    </text>
  </g>
  <g>
    <polyline style="fill: none; fill-opacity:0; stroke-width: 2; stroke: #000000" points="827.85,194.1 827.85,174.1 468.925,174.1 468.925,251.994 "/>
    <polyline style="fill: none; fill-opacity:0; stroke-width: 2; stroke: #000000" points="460.925,259.994 468.925,251.994 476.925,259.994 "/>
    <text style="fill: #000000;text-anchor:middle;font-size:12.8;font-family:monospace;font-style:normal;font-weight:normal" x="651" y="167">
      <tspan x="651" y="167">Sent to all connected clients</tspan>
      <tspan x="651" y="183"></tspan>
    </text>
  </g>
</svg>
