<?xml version="1.0" encoding="UTF-8" standalone="no"?>
<!DOCTYPE svg PUBLIC "-//W3C//DTD SVG 1.0//EN" "http://www.w3.org/TR/2001/PR-SVG-20010719/DTD/svg10.dtd">
<svg width="66cm" height="23cm" viewBox="457 141 1311 445" xmlns="http://www.w3.org/2000/svg" xmlns:xlink="http://www.w3.org/1999/xlink">
  <g>
    <rect style="fill: #ffffff" x="1130.92" y="370.598" width="168.45" height="86"/>
    <rect style="fill: none; fill-opacity:0; stroke-width: 2; stroke: #000000" x="1130.92" y="370.598" width="168.45" height="86"/>
    <rect style="fill: #ffffff" x="1110.92" y="392.598" width="40" height="14"/>
    <rect style="fill: none; fill-opacity:0; stroke-width: 2; stroke: #000000" x="1110.92" y="392.598" width="40" height="14"/>
    <rect style="fill: #ffffff" x="1110.92" y="420.598" width="40" height="14"/>
    <rect style="fill: none; fill-opacity:0; stroke-width: 2; stroke: #000000" x="1110.92" y="420.598" width="40" height="14"/>
    <text style="fill: #000000;text-anchor:start;font-size:12.8;font-family:sanserif;font-style:normal;font-weight:700" x="1158.92" y="396.498">&lt;&lt;CoffeeScript&gt;&gt;</text>
    <text style="fill: #000000;text-anchor:start;font-size:12.8;font-family:sanserif;font-style:normal;font-weight:700" x="1158.92" y="412.498">
      <tspan x="1158.92" y="412.498">tulpasynth client</tspan>
    </text>
  </g>
  <g>
    <rect style="fill: #ffffff" x="1135.51" y="498.326" width="157.75" height="86"/>
    <rect style="fill: none; fill-opacity:0; stroke-width: 2; stroke: #000000" x="1135.51" y="498.326" width="157.75" height="86"/>
    <rect style="fill: #ffffff" x="1115.51" y="520.326" width="40" height="14"/>
    <rect style="fill: none; fill-opacity:0; stroke-width: 2; stroke: #000000" x="1115.51" y="520.326" width="40" height="14"/>
    <rect style="fill: #ffffff" x="1115.51" y="548.326" width="40" height="14"/>
    <rect style="fill: none; fill-opacity:0; stroke-width: 2; stroke: #000000" x="1115.51" y="548.326" width="40" height="14"/>
    <text style="fill: #000000;text-anchor:start;font-size:12.8;font-family:sanserif;font-style:normal;font-weight:normal" x="1163.51" y="524.226">&lt;&lt;CoffeeScript&gt;&gt;</text>
    <text style="fill: #000000;text-anchor:start;font-size:12.8;font-family:sanserif;font-style:normal;font-weight:normal" x="1163.51" y="540.226">
      <tspan x="1163.51" y="540.226">CoffeeScript</tspan>
    </text>
  </g>
  <g>
    <rect style="fill: #ffffff" x="1405.71" y="370.034" width="143.25" height="86"/>
    <rect style="fill: none; fill-opacity:0; stroke-width: 2; stroke: #000000" x="1405.71" y="370.034" width="143.25" height="86"/>
    <rect style="fill: #ffffff" x="1385.71" y="392.034" width="40" height="14"/>
    <rect style="fill: none; fill-opacity:0; stroke-width: 2; stroke: #000000" x="1385.71" y="392.034" width="40" height="14"/>
    <rect style="fill: #ffffff" x="1385.71" y="420.034" width="40" height="14"/>
    <rect style="fill: none; fill-opacity:0; stroke-width: 2; stroke: #000000" x="1385.71" y="420.034" width="40" height="14"/>
    <text style="fill: #000000;text-anchor:start;font-size:12.8;font-family:sanserif;font-style:normal;font-weight:normal" x="1433.71" y="395.934">&lt;&lt;JavaScript&gt;&gt;</text>
    <text style="fill: #000000;text-anchor:start;font-size:12.8;font-family:sanserif;font-style:normal;font-weight:normal" x="1433.71" y="411.934">
      <tspan x="1433.71" y="411.934">Backbone.js</tspan>
    </text>
  </g>
  <g>
    <rect style="fill: #ffffff" x="1623.24" y="370.284" width="143.25" height="86"/>
    <rect style="fill: none; fill-opacity:0; stroke-width: 2; stroke: #000000" x="1623.24" y="370.284" width="143.25" height="86"/>
    <rect style="fill: #ffffff" x="1603.24" y="392.284" width="40" height="14"/>
    <rect style="fill: none; fill-opacity:0; stroke-width: 2; stroke: #000000" x="1603.24" y="392.284" width="40" height="14"/>
    <rect style="fill: #ffffff" x="1603.24" y="420.284" width="40" height="14"/>
    <rect style="fill: none; fill-opacity:0; stroke-width: 2; stroke: #000000" x="1603.24" y="420.284" width="40" height="14"/>
    <text style="fill: #000000;text-anchor:start;font-size:12.8;font-family:sanserif;font-style:normal;font-weight:normal" x="1651.24" y="396.184">&lt;&lt;JavaScript&gt;&gt;</text>
    <text style="fill: #000000;text-anchor:start;font-size:12.8;font-family:sanserif;font-style:normal;font-weight:normal" x="1651.24" y="412.184">
      <tspan x="1651.24" y="412.184">Underscore.js</tspan>
    </text>
  </g>
  <g>
    <rect style="fill: #ffffff" x="1388.88" y="255.462" width="176.9" height="86"/>
    <rect style="fill: none; fill-opacity:0; stroke-width: 2; stroke: #000000" x="1388.88" y="255.462" width="176.9" height="86"/>
    <rect style="fill: #ffffff" x="1368.88" y="277.462" width="40" height="14"/>
    <rect style="fill: none; fill-opacity:0; stroke-width: 2; stroke: #000000" x="1368.88" y="277.462" width="40" height="14"/>
    <rect style="fill: #ffffff" x="1368.88" y="305.462" width="40" height="14"/>
    <rect style="fill: none; fill-opacity:0; stroke-width: 2; stroke: #000000" x="1368.88" y="305.462" width="40" height="14"/>
    <text style="fill: #000000;text-anchor:start;font-size:12.8;font-family:sanserif;font-style:normal;font-weight:normal" x="1416.88" y="281.362">&lt;&lt;JavaScript&gt;&gt;</text>
    <text style="fill: #000000;text-anchor:start;font-size:12.8;font-family:sanserif;font-style:normal;font-weight:normal" x="1416.88" y="297.362">
      <tspan x="1416.88" y="297.362">BackboneRelational.js</tspan>
    </text>
  </g>
  <g>
    <rect style="fill: #ffffff" x="1405.71" y="142.106" width="143.25" height="86"/>
    <rect style="fill: none; fill-opacity:0; stroke-width: 2; stroke: #000000" x="1405.71" y="142.106" width="143.25" height="86"/>
    <rect style="fill: #ffffff" x="1385.71" y="164.106" width="40" height="14"/>
    <rect style="fill: none; fill-opacity:0; stroke-width: 2; stroke: #000000" x="1385.71" y="164.106" width="40" height="14"/>
    <rect style="fill: #ffffff" x="1385.71" y="192.106" width="40" height="14"/>
    <rect style="fill: none; fill-opacity:0; stroke-width: 2; stroke: #000000" x="1385.71" y="192.106" width="40" height="14"/>
    <text style="fill: #000000;text-anchor:start;font-size:12.8;font-family:sanserif;font-style:normal;font-weight:normal" x="1433.71" y="168.006">&lt;&lt;JavaScript&gt;&gt;</text>
    <text style="fill: #000000;text-anchor:start;font-size:12.8;font-family:sanserif;font-style:normal;font-weight:normal" x="1433.71" y="184.006">
      <tspan x="1433.71" y="184.006">Raphael.js</tspan>
    </text>
  </g>
  <g>
    <polyline style="fill: none; fill-opacity:0; stroke-width: 2; stroke-dasharray: 8; stroke: #000000" points="1215.14,370.598 1215.14,185.106 1399,185.106 "/>
    <polyline style="fill: none; fill-opacity:0; stroke-width: 2; stroke: #000000" points="1386.36,190.106 1402.36,185.106 1386.36,180.106 "/>
  </g>
  <g>
    <polyline style="fill: none; fill-opacity:0; stroke-width: 2; stroke-dasharray: 8; stroke: #000000" points="1299.37,413.598 1352.54,413.598 1352.54,413.034 1399,413.034 "/>
    <polyline style="fill: none; fill-opacity:0; stroke-width: 2; stroke: #000000" points="1386.36,418.034 1402.36,413.034 1386.36,408.034 "/>
  </g>
  <g>
    <polyline style="fill: none; fill-opacity:0; stroke-width: 2; stroke-dasharray: 8; stroke: #000000" points="1548.96,413.034 1586.1,413.034 1586.1,413.284 1616.54,413.284 "/>
    <polyline style="fill: none; fill-opacity:0; stroke-width: 2; stroke: #000000" points="1603.89,418.284 1619.89,413.284 1603.89,408.284 "/>
  </g>
  <g>
    <polyline style="fill: none; fill-opacity:0; stroke-width: 2; stroke-dasharray: 8; stroke: #000000" points="1215.14,456.598 1215.14,477.462 1214.39,477.462 1214.39,491.621 "/>
    <polyline style="fill: none; fill-opacity:0; stroke-width: 2; stroke: #000000" points="1209.39,478.973 1214.39,494.973 1219.39,478.973 "/>
  </g>
  <g>
    <polyline style="fill: none; fill-opacity:0; stroke-width: 2; stroke-dasharray: 8; stroke: #000000" points="1215.14,370.598 1215.14,298.462 1382.18,298.462 "/>
    <polyline style="fill: none; fill-opacity:0; stroke-width: 2; stroke: #000000" points="1369.53,303.462 1385.53,298.462 1369.53,293.462 "/>
  </g>
  <g>
    <rect style="fill: #ffffff" x="895.218" y="369.212" width="164.05" height="86"/>
    <rect style="fill: none; fill-opacity:0; stroke-width: 2; stroke: #000000" x="895.218" y="369.212" width="164.05" height="86"/>
    <rect style="fill: #ffffff" x="875.218" y="391.212" width="40" height="14"/>
    <rect style="fill: none; fill-opacity:0; stroke-width: 2; stroke: #000000" x="875.218" y="391.212" width="40" height="14"/>
    <rect style="fill: #ffffff" x="875.218" y="419.212" width="40" height="14"/>
    <rect style="fill: none; fill-opacity:0; stroke-width: 2; stroke: #000000" x="875.218" y="419.212" width="40" height="14"/>
    <text style="fill: #000000;text-anchor:start;font-size:12.8;font-family:sanserif;font-style:normal;font-weight:700" x="923.218" y="395.112">&lt;&lt;C++&gt;&gt;</text>
    <text style="fill: #000000;text-anchor:start;font-size:12.8;font-family:sanserif;font-style:normal;font-weight:700" x="923.218" y="411.112">
      <tspan x="923.218" y="411.112">tulpasynth server</tspan>
    </text>
  </g>
  <g>
    <rect style="fill: #ffffff" x="665.834" y="255.462" width="120.2" height="86"/>
    <rect style="fill: none; fill-opacity:0; stroke-width: 2; stroke: #000000" x="665.834" y="255.462" width="120.2" height="86"/>
    <rect style="fill: #ffffff" x="645.834" y="277.462" width="40" height="14"/>
    <rect style="fill: none; fill-opacity:0; stroke-width: 2; stroke: #000000" x="645.834" y="277.462" width="40" height="14"/>
    <rect style="fill: #ffffff" x="645.834" y="305.462" width="40" height="14"/>
    <rect style="fill: none; fill-opacity:0; stroke-width: 2; stroke: #000000" x="645.834" y="305.462" width="40" height="14"/>
    <text style="fill: #000000;text-anchor:start;font-size:12.8;font-family:sanserif;font-style:normal;font-weight:normal" x="693.834" y="281.362">&lt;&lt;C++&gt;&gt;</text>
    <text style="fill: #000000;text-anchor:start;font-size:12.8;font-family:sanserif;font-style:normal;font-weight:normal" x="693.834" y="297.362">
      <tspan x="693.834" y="297.362">websocketpp</tspan>
    </text>
  </g>
  <g>
    <rect style="fill: #ffffff" x="478.284" y="255.462" width="109.45" height="86"/>
    <rect style="fill: none; fill-opacity:0; stroke-width: 2; stroke: #000000" x="478.284" y="255.462" width="109.45" height="86"/>
    <rect style="fill: #ffffff" x="458.284" y="277.462" width="40" height="14"/>
    <rect style="fill: none; fill-opacity:0; stroke-width: 2; stroke: #000000" x="458.284" y="277.462" width="40" height="14"/>
    <rect style="fill: #ffffff" x="458.284" y="305.462" width="40" height="14"/>
    <rect style="fill: none; fill-opacity:0; stroke-width: 2; stroke: #000000" x="458.284" y="305.462" width="40" height="14"/>
    <text style="fill: #000000;text-anchor:start;font-size:12.8;font-family:sanserif;font-style:normal;font-weight:normal" x="506.284" y="281.362">&lt;&lt;C++&gt;&gt;</text>
    <text style="fill: #000000;text-anchor:start;font-size:12.8;font-family:sanserif;font-style:normal;font-weight:normal" x="506.284" y="297.362">
      <tspan x="506.284" y="297.362">boost</tspan>
    </text>
  </g>
  <g>
    <polyline style="fill: none; fill-opacity:0; stroke-width: 2; stroke-dasharray: 8; stroke: #000000" points="665.834,298.462 665.834,298.462 594.439,298.462 "/>
    <polyline style="fill: none; fill-opacity:0; stroke-width: 2; stroke: #000000" points="607.087,293.462 591.087,298.462 607.087,303.462 "/>
  </g>
  <g>
    <rect style="fill: #ffffff" x="671.21" y="142.106" width="109.45" height="86"/>
    <rect style="fill: none; fill-opacity:0; stroke-width: 2; stroke: #000000" x="671.21" y="142.106" width="109.45" height="86"/>
    <rect style="fill: #ffffff" x="651.21" y="164.106" width="40" height="14"/>
    <rect style="fill: none; fill-opacity:0; stroke-width: 2; stroke: #000000" x="651.21" y="164.106" width="40" height="14"/>
    <rect style="fill: #ffffff" x="651.21" y="192.106" width="40" height="14"/>
    <rect style="fill: none; fill-opacity:0; stroke-width: 2; stroke: #000000" x="651.21" y="192.106" width="40" height="14"/>
    <text style="fill: #000000;text-anchor:start;font-size:12.8;font-family:sanserif;font-style:normal;font-weight:normal" x="699.21" y="168.006">&lt;&lt;C++&gt;&gt;</text>
    <text style="fill: #000000;text-anchor:start;font-size:12.8;font-family:sanserif;font-style:normal;font-weight:normal" x="699.21" y="184.006">
      <tspan x="699.21" y="184.006">jsonpp</tspan>
    </text>
  </g>
  <g>
    <rect style="fill: #ffffff" x="671.21" y="369.412" width="109.45" height="86"/>
    <rect style="fill: none; fill-opacity:0; stroke-width: 2; stroke: #000000" x="671.21" y="369.412" width="109.45" height="86"/>
    <rect style="fill: #ffffff" x="651.21" y="391.412" width="40" height="14"/>
    <rect style="fill: none; fill-opacity:0; stroke-width: 2; stroke: #000000" x="651.21" y="391.412" width="40" height="14"/>
    <rect style="fill: #ffffff" x="651.21" y="419.412" width="40" height="14"/>
    <rect style="fill: none; fill-opacity:0; stroke-width: 2; stroke: #000000" x="651.21" y="419.412" width="40" height="14"/>
    <text style="fill: #000000;text-anchor:start;font-size:12.8;font-family:sanserif;font-style:normal;font-weight:normal" x="699.21" y="395.312">&lt;&lt;C++&gt;&gt;</text>
    <text style="fill: #000000;text-anchor:start;font-size:12.8;font-family:sanserif;font-style:normal;font-weight:normal" x="699.21" y="411.312">
      <tspan x="699.21" y="411.312">stk</tspan>
    </text>
  </g>
  <g>
    <rect style="fill: #ffffff" x="922.41" y="498.326" width="109.45" height="86"/>
    <rect style="fill: none; fill-opacity:0; stroke-width: 2; stroke: #000000" x="922.41" y="498.326" width="109.45" height="86"/>
    <rect style="fill: #ffffff" x="902.41" y="520.326" width="40" height="14"/>
    <rect style="fill: none; fill-opacity:0; stroke-width: 2; stroke: #000000" x="902.41" y="520.326" width="40" height="14"/>
    <rect style="fill: #ffffff" x="902.41" y="548.326" width="40" height="14"/>
    <rect style="fill: none; fill-opacity:0; stroke-width: 2; stroke: #000000" x="902.41" y="548.326" width="40" height="14"/>
    <text style="fill: #000000;text-anchor:start;font-size:12.8;font-family:sanserif;font-style:normal;font-weight:normal" x="950.41" y="524.226">&lt;&lt;C++&gt;&gt;</text>
    <text style="fill: #000000;text-anchor:start;font-size:12.8;font-family:sanserif;font-style:normal;font-weight:normal" x="950.41" y="540.226">
      <tspan x="950.41" y="540.226">tclap</tspan>
    </text>
  </g>
  <g>
    <polyline style="fill: none; fill-opacity:0; stroke-width: 2; stroke-dasharray: 8; stroke: #000000" points="895.218,412.212 808.218,412.212 808.218,412.412 787.365,412.412 "/>
    <polyline style="fill: none; fill-opacity:0; stroke-width: 2; stroke: #000000" points="800.013,407.412 784.013,412.412 800.013,417.412 "/>
  </g>
  <g>
    <polyline style="fill: none; fill-opacity:0; stroke-width: 2; stroke-dasharray: 8; stroke: #000000" points="977.243,455.212 977.243,476.769 977.135,476.769 977.135,491.621 "/>
    <polyline style="fill: none; fill-opacity:0; stroke-width: 2; stroke: #000000" points="972.135,478.973 977.135,494.973 982.135,478.973 "/>
  </g>
  <g>
    <polyline style="fill: none; fill-opacity:0; stroke-width: 2; stroke-dasharray: 8; stroke: #000000" points="977.243,369.212 977.243,298.462 792.739,298.462 "/>
    <polyline style="fill: none; fill-opacity:0; stroke-width: 2; stroke: #000000" points="805.387,293.462 789.387,298.462 805.387,303.462 "/>
  </g>
  <g>
    <polyline style="fill: none; fill-opacity:0; stroke-width: 2; stroke-dasharray: 8; stroke: #000000" points="977.243,369.212 977.243,185.106 787.365,185.106 "/>
    <polyline style="fill: none; fill-opacity:0; stroke-width: 2; stroke: #000000" points="800.013,180.106 784.013,185.106 800.013,190.106 "/>
  </g>
  <g>
    <polyline style="fill: none; fill-opacity:0; stroke-width: 2; stroke-dasharray: 8; stroke: #000000" points="1477.33,341.462 1477.33,355.748 1477.33,355.748 1477.33,363.329 "/>
    <polyline style="fill: none; fill-opacity:0; stroke-width: 2; stroke: #000000" points="1472.33,350.681 1477.33,366.681 1482.33,350.681 "/>
  </g>
  <g>
    <rect style="fill: #ffffff" x="671.21" y="498.326" width="109.45" height="86"/>
    <rect style="fill: none; fill-opacity:0; stroke-width: 2; stroke: #000000" x="671.21" y="498.326" width="109.45" height="86"/>
    <rect style="fill: #ffffff" x="651.21" y="520.326" width="40" height="14"/>
    <rect style="fill: none; fill-opacity:0; stroke-width: 2; stroke: #000000" x="651.21" y="520.326" width="40" height="14"/>
    <rect style="fill: #ffffff" x="651.21" y="548.326" width="40" height="14"/>
    <rect style="fill: none; fill-opacity:0; stroke-width: 2; stroke: #000000" x="651.21" y="548.326" width="40" height="14"/>
    <text style="fill: #000000;text-anchor:start;font-size:12.8;font-family:sanserif;font-style:normal;font-weight:normal" x="699.21" y="524.226">&lt;&lt;C++&gt;&gt;</text>
    <text style="fill: #000000;text-anchor:start;font-size:12.8;font-family:sanserif;font-style:normal;font-weight:normal" x="699.21" y="540.226">
      <tspan x="699.21" y="540.226">RtAudio</tspan>
    </text>
  </g>
  <g>
    <polyline style="fill: none; fill-opacity:0; stroke-width: 2; stroke-dasharray: 8; stroke: #000000" points="725.935,455.412 725.935,455.412 725.935,491.621 "/>
    <polyline style="fill: none; fill-opacity:0; stroke-width: 2; stroke: #000000" points="720.935,478.973 725.935,494.973 730.935,478.973 "/>
  </g>
</svg>
